{"title":"Maleficent [2014] - DVDRip - XviD - 720p - AAC - eXclusive - Tea","uid":10798694,"size":1113629641,"categoryP":"video","categoryS":"movies","magnet":"?xt=urn:btih:73a169ad95d111cfae385fdd8346178f78d9d772&amp;dn=Maleficent+%5B2014%5D+-+DVDRip+-+XviD+-+720p+-+AAC+-+eXclusive+-+Tea&amp;tr=udp%3A%2F%2Ftracker.openbittorrent.com%3A80&amp;tr=udp%3A%2F%2Fopen.demonii.com%3A1337&amp;tr=udp%3A%2F%2Ftracker.coppersurfer.tk%3A6969&amp;tr=udp%3A%2F%2Fexodus.desync.com%3A6969","seeders":3,"leechers":0,"uploader":"TeamMCT","files":13,"time":1408316599,"description":"[CENTER]\n[quote=&quot;Team MCT ~ MovieClub&quot;][COLOR=&quot;Brown&quot;][SIZE=&quot;4&quot;][b]Problem-* Screenshots Wont Be Clear As It Is When It's Downloaded![/b][/SIZE][/COLOR]\n[COLOR=&quot;Purple&quot;][SIZE=&quot;4&quot;][b]Reason-* Screenshots Have Been Taken From Windows Server![/b][/SIZE][/COLOR]\n[COLOR=&quot;Green&quot;][SIZE=&quot;4&quot;][b]Solution-* Please Check The Sample Link Provided Below![/b][/SIZE][/COLOR][/quote]\n\n[quote=&quot;Downloaders&quot;][COLOR=&quot;Red&quot;][SIZE=&quot;3&quot;][b]Please Don't Complain if the video is not working! It has been tested!\nTry a different Video Player...If Any problems Please comment and, We as a team will help you![/b][/SIZE][/COLOR][/quote][/CENTER]\n\n\n[CENTER][IMG]http://i.imgbox.com/ZWbSnYVO.png[/IMG][/CENTER]\n\n\n[CENTER][IMG]http://marieclaire.media.ipcdigital.co.uk/11116/00007d951/b2bd_orh100000w440/maleficent-poster.jpg[/IMG][/CENTER]\n\n\n[CENTER][B][COLOR=&quot;brown&quot;][SIZE=6]Media Info[/SIZE][/COLOR][/B][/CENTER]\n\n[CENTER][quote=&quot;Team MCT&quot;]\nGeneral\nComplete name                            : Maleficent [2014].mp4\nFormat                                   : MPEG-4\nFormat profile                           : Base Media\nCodec ID                                 : isom\nFile size                                : 1.02 GiB\nDuration                                 : 1h 37mn\nOverall bit rate mode                    : Variable\nOverall bit rate                         : 1 501 Kbps\nEncoded date                             : UTC 2014-08-17 18:24:04\nTagged date                              : UTC 2014-08-17 18:24:04\nWriting application                      : Lavf51.12.1\nCopyright                                : Team MCT\n\nVideo\nID                                       : 1\nFormat                                   : MPEG-4 Visual\nFormat profile                           : Simple@L1\nFormat settings, BVOP                    : No\nFormat settings, QPel                    : No\nFormat settings, GMC                     : No warppoints\nFormat settings, Matrix                  : Default (H.263)\nCodec ID                                 : 20\nDuration                                 : 1h 37mn\nBit rate                                 : 1 321 Kbps\nWidth                                    : 1 280 pixels\nHeight                                   : 544 pixels\nDisplay aspect ratio                     : 2.35:1\nFrame rate mode                          : Constant\nFrame rate                               : 23.976 fps\nColor space                              : YUV\nChroma subsampling                       : 4:2:0\nBit depth                                : 8 bits\nScan type                                : Progressive\nCompression mode                         : Lossy\nBits/(Pixel*Frame)                       : 0.079\nStream size                              : 921 MiB (88%)\nWriting library                          : Lavc51.40.4\nEncoded date                             : UTC 2014-08-17 18:24:04\nTagged date                              : UTC 2014-08-17 18:24:04\n\nAudio\nID                                       : 2\nFormat                                   : AAC\nFormat/Info                              : Advanced Audio Codec\nFormat profile                           : LC\nCodec ID                                 : 40\nDuration                                 : 1h 37mn\nBit rate mode                            : Variable\nBit rate                                 : 176 Kbps\nChannel(s)                               : 2 channels\nChannel(s)_Original                      : 6 channels\nChannel positions                        : Front: L C R, Side: L R, LFE\nSampling rate                            : 44.1 KHz\nCompression mode                         : Lossy\nStream size                              : 123 MiB (12%)\nEncoded date                             : UTC 2014-08-17 18:24:04\nTagged date                              : UTC 2014-08-17 18:24:04\n[/quote][/CENTER]\n\n\n[CENTER][B][COLOR=&quot;brown&quot;][SIZE=6]Screenshots[/SIZE][/COLOR][/B][/CENTER]\n[CENTER]\n[URL=http://imgbox.com/a5jg2Y6H][IMG]http://t.imgbox.com/a5jg2Y6H.jpg[/IMG][/URL] [URL=http://imgbox.com/jQbSul3g][IMG]http://t.imgbox.com/jQbSul3g.jpg[/IMG][/URL] [URL=http://imgbox.com/4fjAyT1r][IMG]http://t.imgbox.com/4fjAyT1r.jpg[/IMG][/URL] [URL=http://imgbox.com/iEpyOIxS][IMG]http://t.imgbox.com/iEpyOIxS.jpg[/IMG][/URL] [URL=http://imgbox.com/e65o4f2M][IMG]http://t.imgbox.com/e65o4f2M.jpg[/IMG][/URL] [URL=http://imgbox.com/tN3OnSJz][IMG]http://t.imgbox.com/tN3OnSJz.jpg[/IMG][/URL] [URL=http://imgbox.com/SJv7jBrh][IMG]http://t.imgbox.com/SJv7jBrh.jpg[/IMG][/URL] [URL=http://imgbox.com/JLo2jOJ9][IMG]http://t.imgbox.com/JLo2jOJ9.jpg[/IMG][/URL]\n[/CENTER]\n\n\nSans MS&quot;][color=blue][size=6][b]SAMPLE[/b][/size][/color][/font][/url][/center]\n\n\n[center][b][color=red][size=5][b]\nDON'T FORGET TO GIVE CREDIT TO ==&gt; [color=black]TEAM MCT[/color]\nOR I WILL REPORT U IF I FIND OUT U DIDN'T GIVE CREDIT TO ==&gt;[color=black]TEAM MCT[/color][/b][/size][/color][/b][/center]\n\n[CENTER]==================================\n[COLOR=&quot;RED&quot;][SIZE=&quot;4&quot;][b]Team MCT -=: MovieClub :=-[/b][/SIZE][/COLOR]\n==================================[/CENTER]\n\n[CENTER][COLOR=&quot;Purple&quot;][SIZE=&quot;3&quot;][b]Don't Forget To Say &quot;Thanks&quot;! And &quot;Comment&quot;! If You Like My Post![/b][/SIZE][/COLOR][/CENTER]\n[CENTER][COLOR=&quot;Green&quot;][SIZE=&quot;3&quot;][b]If You Don't Reply, This Post Will &quot;Die&quot;![/b][/SIZE][/COLOR][/CENTER]\n[CENTER][COLOR=&quot;Brown&quot;][SIZE=&quot;3&quot;][b]Check Sample Before &quot;Commenting&quot;![/b][/SIZE][/COLOR][/CENTER]\n\n[quote=&quot;MovieClub&quot;]Please Seed After downloading...and maintain your Ratio!\nIf Any Mistake, Forgive Me...All Suggestions, Instructions, Orders By Admin ETC, Heartly Accepted...\nIf You Want Any Other, Please PM Me...[/quote]","torrent":{"xt":"urn:btih:73a169ad95d111cfae385fdd8346178f78d9d772","amp;dn":"Maleficent+%5B2014%5D+-+DVDRip+-+XviD+-+720p+-+AAC+-+eXclusive+-+Tea","amp;tr":["udp%3A%2F%2Ftracker.openbittorrent.com%3A80","udp%3A%2F%2Fopen.demonii.com%3A1337","udp%3A%2F%2Ftracker.coppersurfer.tk%3A6969","udp%3A%2F%2Fexodus.desync.com%3A6969"],"infoHash":"73a169ad95d111cfae385fdd8346178f78d9d772","infoHashBuffer":{"type":"Buffer","data":[115,161,105,173,149,209,17,207,174,56,95,221,131,70,23,143,120,217,215,114]},"announce":[],"urlList":[]}}